<?xml version="1.0" encoding="UTF-8" standalone="no"?>
<!-- Created with Inkscape (http://www.inkscape.org/) -->

<svg
   xmlns:dc="http://purl.org/dc/elements/1.1/"
   xmlns:cc="http://creativecommons.org/ns#"
   xmlns:rdf="http://www.w3.org/1999/02/22-rdf-syntax-ns#"
   xmlns:svg="http://www.w3.org/2000/svg"
   xmlns="http://www.w3.org/2000/svg"
   xmlns:xlink="http://www.w3.org/1999/xlink"
   xmlns:sodipodi="http://sodipodi.sourceforge.net/DTD/sodipodi-0.dtd"
   xmlns:inkscape="http://www.inkscape.org/namespaces/inkscape"
   width="446.78296"
   height="297.85736"
   id="svg2"
   sodipodi:version="0.32"
   inkscape:version="0.91 r13725"
   sodipodi:docname="computer-mouse-outline-11971485231218123211aritztg_Mouse.svg"
   inkscape:output_extension="org.inkscape.output.svg.inkscape"
   version="1.0"
   inkscape:export-filename="C:\Users\cis24\Documents\GitHub\Meet-EDSAC\MeetEDSAC\Assets\Sprites\UI\Other\Controls\mouse.png"
   inkscape:export-xdpi="90"
   inkscape:export-ydpi="90">
  <defs
     id="defs4">
    <linearGradient
       inkscape:collect="always"
       id="linearGradient10002">
      <stop
         style="stop-color:#000000;stop-opacity:1;"
         offset="0"
         id="stop10004" />
      <stop
         style="stop-color:#000000;stop-opacity:0;"
         offset="1"
         id="stop10006" />
    </linearGradient>
    <linearGradient
       inkscape:collect="always"
       xlink:href="#linearGradient10002"
       id="linearGradient10008"
       x1="308.28772"
       y1="206.87651"
       x2="303.34723"
       y2="201.936"
       gradientUnits="userSpaceOnUse"
       gradientTransform="translate(-30.600931,44.201345)" />
  </defs>
  <sodipodi:namedview
     id="base"
     pagecolor="#ffffff"
     bordercolor="#666666"
     borderopacity="1.0"
     inkscape:pageopacity="0.0"
     inkscape:pageshadow="2"
     inkscape:zoom="0.83186501"
     inkscape:cx="178.50097"
     inkscape:cy="268.67606"
     inkscape:document-units="px"
     inkscape:current-layer="layer1"
     showguides="true"
     inkscape:guide-bbox="true"
     inkscape:window-width="1024"
     inkscape:window-height="712"
     inkscape:window-x="198"
     inkscape:window-y="261"
     height="500px"
     width="744.09448px"
     showgrid="false"
     inkscape:window-maximized="0" />
  <metadata
     id="metadata7">
    <rdf:RDF>
      <cc:Work
         rdf:about="">
        <dc:format>image/svg+xml</dc:format>
        <dc:type
           rdf:resource="http://purl.org/dc/dcmitype/StillImage" />
      </cc:Work>
    </rdf:RDF>
  </metadata>
  <g
     inkscape:label="Capa 1"
     inkscape:groupmode="layer"
     id="layer1"
     transform="translate(-121.18624,-120.38943)">
    <path
       style="fill:none;fill-rule:evenodd;stroke:#000000;stroke-width:6;stroke-linecap:butt;stroke-linejoin:miter;stroke-miterlimit:4;stroke-dasharray:none;stroke-opacity:1"
       d="M 211.39907,348.56353 C 177.39907,299.56353 175.39907,290.56353 175.39907,290.56353 L 177.39907,275.56353 C 177.39907,275.56353 219.39907,224.56353 279.39907,180.56353 C 327.74104,145.11275 369.59149,128.48737 403.38137,124.41114 C 411.53005,123.42812 419.20995,123.17493 426.39907,123.56353 C 463.39907,125.56353 510.39907,137.56353 537.39907,162.56353 C 564.39907,187.56353 566.39907,211.56353 564.39907,229.56353 C 562.39907,247.56353 537.39907,281.56353 537.39907,281.56353 C 537.39907,281.56353 319.39907,390.56353 311.39907,390.56353 C 303.39907,390.56353 282.39907,383.56353 282.39907,383.56353 C 282.39907,383.56353 261.39907,377.56353 247.39907,373.56353 C 233.39907,369.56353 212.39907,350.56353 211.39907,348.56353 z"
       id="path3199"
       sodipodi:nodetypes="cccssssscscsc" />
    <path
       style="fill:none;fill-rule:evenodd;stroke:#000000;stroke-width:4;stroke-linecap:butt;stroke-linejoin:miter;stroke-miterlimit:4;stroke-dasharray:none;stroke-opacity:1"
       d="M 175.39907,288.56353 C 202.39907,320.56353 212.39907,337.56353 219.39907,343.56353 C 226.39907,349.56353 253.39907,353.56353 271.39907,361.56353 C 289.39907,369.56353 298.39907,373.56353 305.39907,373.56353 C 312.39907,373.56353 344.39907,352.56353 371.39907,332.56353 C 398.39907,312.56353 439.39907,283.56353 462.39907,273.56353 C 485.39907,263.56353 492.39907,258.56353 508.39907,258.56353 C 524.39907,258.56353 535.39907,268.56353 535.39907,268.56353 L 555.39907,251.9363 L 560.44932,242.86823"
       id="path4172"
       sodipodi:nodetypes="cssssssccc" />
    <path
       style="fill:none;fill-rule:evenodd;stroke:#000000;stroke-width:4;stroke-linecap:butt;stroke-linejoin:miter;stroke-miterlimit:4;stroke-dasharray:none;stroke-opacity:1"
       d="M 427.39907,291.56353 C 427.39907,278.56353 424.39907,272.56353 418.39907,266.56353 C 412.39907,260.56353 342.37527,212.21037 343.37527,211.21037 C 344.37527,210.21037 347.39907,202.56353 349.39907,197.56353 C 351.39907,192.56353 349.39907,191.56353 343.39907,191.56353 C 337.39907,191.56353 324.39907,199.56353 324.39907,199.56353 C 324.39907,199.56353 309.39907,190.56353 299.39907,186.56353 C 289.39907,182.56353 284.39907,180.56353 284.39907,180.56353 L 279.39907,179.56353"
       id="path4174"
       sodipodi:nodetypes="csssscscc" />
    <path
       style="fill:none;fill-rule:evenodd;stroke:#000000;stroke-width:4;stroke-linecap:butt;stroke-linejoin:miter;stroke-miterlimit:4;stroke-dasharray:none;stroke-opacity:1"
       d="M 258.23628,256.32556 C 244.71654,272.22226 225.39907,300.56353 225.39907,306.56353 C 225.39907,312.56353 226.39907,313.56353 233.39907,313.56353 C 240.39907,313.56353 266.39907,294.56353 288.39907,276.56353 C 310.39907,258.56353 341.12919,217.45645 343.12919,211.45645 C 345.12919,205.45645 350.39907,194.56353 347.39907,191.56353 C 344.39907,188.56353 324.62032,197.47046 307.39907,210.56353 C 285.1173,227.50404 273.04591,240.18657 258.23628,256.32556 z"
       id="path4176"
       sodipodi:nodetypes="cssssssc" />
    <path
       style="fill:none;fill-rule:evenodd;stroke:#000000;stroke-width:4;stroke-linecap:butt;stroke-linejoin:miter;stroke-miterlimit:4;stroke-dasharray:none;stroke-opacity:1"
       d="M 228.39907,309.56353 C 224.39907,314.56353 220.39907,322.56353 220.39907,322.56353 L 220.39907,342.56353 L 220.39907,342.56353"
       id="path4180" />
    <path
       style="fill:none;fill-rule:evenodd;stroke:#000000;stroke-width:1px;stroke-linecap:butt;stroke-linejoin:miter;stroke-opacity:1"
       d="M 179.39907,275.56353 C 179.39907,275.56353 186.39907,282.56353 194.39907,292.56353 C 202.39907,302.56353 221.39907,324.56353 221.39907,324.56353 C 221.39907,324.56353 235.39907,329.56353 253.39907,336.56353 C 271.39907,343.56353 297.39907,357.56353 302.39907,358.56353 C 307.39907,359.56353 311.39907,356.56353 319.39907,351.56353 C 327.39907,346.56353 417.39907,280.56353 442.39907,267.56353 C 467.39907,254.56353 482.39907,245.56353 492.39907,243.56353 C 502.39907,241.56353 505.39907,241.56353 505.39907,241.56353"
       id="path8058" />
    <path
       style="fill:url(#linearGradient10008);fill-opacity:1;fill-rule:evenodd;stroke:#000000;stroke-width:6;stroke-linecap:butt;stroke-linejoin:miter;stroke-miterlimit:4;stroke-dasharray:none;stroke-opacity:1"
       d="M 257.73378,275.90271 C 257.73378,275.90271 263.56953,278.34216 268.79099,275.90271 C 274.01244,273.46324 285.06965,264.31525 291.82683,256.99687 C 298.58401,249.67849 303.19118,243.88476 304.11261,242.05516 C 305.03404,240.22557 305.03404,234.43184 302.57689,233.21212 C 300.11974,231.99239 291.82683,232.90718 287.52681,234.73678 C 283.22678,236.56637 275.24102,243.57983 268.1767,251.20315 C 261.11237,258.82647 255.58377,262.48566 255.58377,267.05965 C 255.58377,271.63365 256.5052,275.59777 257.73378,275.90271 z"
       id="path9031" />
    <path
       style="fill:#000000;fill-opacity:1;fill-rule:evenodd;stroke:#000000;stroke-width:1px;stroke-linecap:butt;stroke-linejoin:miter;stroke-opacity:1"
       d="M 136.79402,413.45991 C 136.79402,413.45991 156.62897,403.54243 182.47451,385.51066 C 208.32005,367.47889 224.24811,355.75824 224.24811,355.75824 C 224.24811,355.75824 225.45023,356.3593 225.75076,353.05347 C 226.05129,349.74765 229.05659,349.74765 223.04599,347.34341 C 217.0354,344.93917 212.52746,350.64923 204.11263,356.05877 C 195.69781,361.4683 182.77504,371.98683 167.74856,381.60378 C 152.72208,391.22072 138.5972,400.53714 133.18766,403.54243 C 127.77813,406.54773 125.3739,408.65143 123.57072,410.75514 C 121.76754,412.85885 120.86595,414.06097 122.66913,416.16467 C 124.47231,418.26838 126.27549,417.66732 128.67972,417.66732 C 131.08396,417.66732 137.39508,413.76044 136.79402,413.45991 z"
       id="path10012" />
  </g>
</svg>
